<svg width="134" height="69" viewBox="0 0 134 69" fill="none" xmlns="http://www.w3.org/2000/svg">
<path d="M34.728 68.672C28.456 68.672 22.696 67.2 17.448 64.256C12.2 61.312 8.04 57.248 4.968 52.064C1.896 46.816 0.36 40.896 0.36 34.304C0.36 27.776 1.896 21.92 4.968 16.736C8.04 11.488 12.2 7.39199 17.448 4.44799C22.696 1.504 28.456 0.0319996 34.728 0.0319996C41.064 0.0319996 46.824 1.504 52.008 4.44799C57.256 7.39199 61.384 11.488 64.392 16.736C67.464 21.92 69 27.776 69 34.304C69 40.896 67.464 46.816 64.392 52.064C61.384 57.248 57.256 61.312 52.008 64.256C46.76 67.2 41 68.672 34.728 68.672ZM34.728 56.672C38.76 56.672 42.312 55.776 45.384 53.984C48.456 52.128 50.856 49.504 52.584 46.112C54.312 42.72 55.176 38.784 55.176 34.304C55.176 29.824 54.312 25.92 52.584 22.592C50.856 19.2 48.456 16.608 45.384 14.816C42.312 13.024 38.76 12.128 34.728 12.128C30.696 12.128 27.112 13.024 23.976 14.816C20.904 16.608 18.504 19.2 16.776 22.592C15.048 25.92 14.184 29.824 14.184 34.304C14.184 38.784 15.048 42.72 16.776 46.112C18.504 49.504 20.904 52.128 23.976 53.984C27.112 55.776 30.696 56.672 34.728 56.672ZM116.823 68L92.439 38.144V68H78.999V0.991999H92.439V31.04L116.823 0.991999H133.047L105.399 34.208L133.815 68H116.823Z" fill="#7562E0"/>
</svg>
